VIDEO INFO:


Format                           : MPEG-4
Format profile                   : Base Media
Codec ID                         : isom
File size                        : 1.62 GiB
Duration                         : 1h 32mn
Overall bit rate                 : 2 506 Kbps
Encoded date                     : UTC 2010-04-10 18:48:59
Tagged date                      : UTC 2010-04-10 18:48:59

Video
ID                               : 1
Format                           : AVC
Format/Info                      : Advanced Video Codec
Format profile                   : High@L4.0
Format settings, CABAC           : Yes
Format settings, ReFrames        : 3 frames
Codec ID                         : avc1
Codec ID/Info                    : Advanced Video Coding
Duration                         : 1h 32mn
Bit rate mode                    : Variable
Bit rate                         : 2 245 Kbps
Maximum bit rate                 : 25.0 Mbps
Width                            : 1 280 pixels
Height                           : 692 pixels
Display aspect ratio             : 1.850
Frame rate mode                  : Constant
Frame rate                       : 23.976 fps
Color space                      : YUV
Chroma subsampling               : 4:2:0
Bit depth                        : 8 bits
Scan type                        : Progressive
Bits/(Pixel*Frame)               : 0.106
Stream size                      : 1.45 GiB (90%)
Title                            : Cujo
Writing library                  : x264 core 89 r1471M 1144615
Encoding settings                : cabac=1 / ref=3 / deblock=1:0:0 / analyse=0x3:0x133 / me=umh / subme=7 / psy=1 / psy_rd=1.00:0.00 / mixed_ref=1 / me_range=16 / chroma_me=1 / trellis=1 / 8x8dct=1 / cqm=0 / deadzone=21,11 / fast_pskip=1 / chroma_qp_offset=-2 / threads=3 / sliced_threads=0 / nr=0 / decimate=1 / interlaced=0 / constrained_intra=0 / bframes=3 / b_pyramid=0 / b_adapt=1 / b_bias=0 / direct=1 / wpredb=1 / wpredp=2 / keyint=240 / keyint_min=24 / scenecut=40 / intra_refresh=0 / rc_lookahead=40 / rc=2pass / mbtree=1 / bitrate=2245 / ratetol=1.0 / qcomp=0.60 / qpmin=10 / qpmax=51 / qpstep=4 / cplxblur=20.0 / qblur=0.5 / vbv_maxrate=25000 / vbv_bufsize=25000 / ip_ratio=1.40 / aq=1:1.00 / pulldown=0 / nal_hrd=vbr
Encoded date                     : UTC 2010-04-10 18:48:59
Tagged date                      : UTC 2010-04-10 18:51:24

Audio
ID                               : 2
Format                           : AAC
Format/Info                      : Advanced Audio Codec
Format version                   : Version 4
Format profile                   : LC
Codec ID                         : 40
Duration                         : 1h 32mn
Bit rate mode                    : Variable
Bit rate                         : 264.6 Kbps
Maximum bit rate                 : 277 Kbps
Channel(s)                       : 6 channels
Channel positions                : Front: L C R, Side: L R, LFE
Sampling rate                    : 48.0 KHz
Compression mode                 : Lossy
Stream size                      : 172 MiB (10%)
Language                         : English
Encoded date                     : UTC 2010-04-10 18:51:01
Tagged date                      : UTC 2010-04-10 18:51:24

_________________________

Verenigde Staten
Horror / Thriller
91 minuten

Geregisseerd door Lewis Teague
Gebaseerd op de novel van Stephen King
Met Dee Wallace-Stone, Danny Pintauro en Daniel Hugh Kelly

Donna Trenton is een gefrustreerde huisvrouw wiens leven overhoop ligt sinds haar echtgenoot er achter is gekomen dat ze een relatie heeft met een andere man. Brett Camber is een jonge jongen wiens enige vriend de Sint Bernard Cujo is, die echter door hondsdolle vleermuizen wordt gebeten. Terwijl Vic, de echtgenoot van Donna, weg is voor zaken neemt Donna haar zoontje Tad mee naar de auto-garage van de vader van Brett. Ze krijgen autopech en komen dan tegenover Cujo te staan. Deze is erg, erg ziek...

Ondertiteling: Nederlands (.srt formaat, bijgevoegd)